# xmcd
#
# Track frame offsets:
#	150
#	17218
#	30078
#	44333
#	57794
#	71397
#	84754
#	101266
#	113942
#	127694
#
# Disc length: 1891 seconds
#
# Revision: 1
# Processed by: cddbd v1.5.2PL0 Copyright (c) Steve Scherf et al.
# Submitted via: audiograbber 1.83.01
#
DISCID=6807610a
DTITLE=Linda Feller - Jetzt lieb ich dich erst recht
DYEAR=1900
DGENRE=Country
TTITLE0=Jetzt lieb ich dich erst recht
TTITLE1=Soviel Zeit muss sein
TTITLE2=Supermarkt Träume
TTITLE3=Halb so schön
TTITLE4=Minuten im Fieber
TTITLE5=Du, immer nur Du
TTITLE6=Wenn Du traurig bist
TTITLE7=2 x ist 1 x zuviel
TTITLE8=Sternenflieger
TTITLE9=Wenn Worte zerstören
EXTD=
EXTT0=
EXTT1=
EXTT2=
EXTT3=
EXTT4=
EXTT5=
EXTT6=
EXTT7=
EXTT8=
EXTT9=
PLAYORDER=
